Patient5_TMGait_0pt45_1_right_11_GRF.mot
version=1
nRows=64
nColumns=19
inDegrees=no
endheader
time	F1x	F1y	F1z	M1x	M1y	M1z	F2x	F2y	F2z	M2x	M2y	M2z	EC1x	EC1y	EC1z	EC2x	EC2y	EC2z
18.07	26.187	877.7963	37.1762	-298.5648	-20.4541	765.3039	0.033561	2.3274	-1.6618	2.3278	0.9787	6.8691	-0.0592	0.0182	-0.0073	-0.0462	0.0165	0.9585
18.0854	27.166	872.9426	35.5125	-296.8851	-19.3041	758.1385	-0.0036243	1.7296	-1.1245	1.5749	0.71796	4.5123	-0.0592	0.0182	-0.0073	-0.0462	0.0165	0.9585
18.1009	28.5942	867.4665	34.0774	-294.9607	-18.1591	749.8079	-0.012425	1.2647	-0.63023	0.96669	0.44783	2.6384	-0.0592	0.0182	-0.0073	-0.0462	0.0165	0.9585
18.1163	30.3658	861.6974	33.0007	-292.8996	-17.1054	740.8301	-0.0023282	0.95457	-0.25674	0.55082	0.22291	1.3658	-0.0592	0.0182	-0.0073	-0.0462	0.0165	0.9585
18.1317	32.3132	855.854	32.3148	-290.7803	-16.2077	731.591	0.019498	0.7888	-0.013756	0.31429	0.059898	0.65232	-0.0592	0.0182	-0.0073	-0.0462	0.0165	0.9585
18.1471	34.2762	850.1438	32.027	-288.6825	-15.5267	722.4122	0.046356	0.74299	0.12509	0.21783	-0.047344	0.37583	-0.0592	0.0182	-0.0073	-0.0462	0.0165	0.9585
18.1626	36.1879	844.7843	32.1236	-286.7031	-15.0921	713.5329	0.070506	0.78921	0.18886	0.21799	-0.10785	0.40742	-0.0592	0.0182	-0.0073	-0.0462	0.0165	0.9585
18.178	38.0698	840.0122	32.5509	-284.9499	-14.8809	705.1646	0.079121	0.9032	0.20676	0.2775	-0.13452	0.62563	-0.0592	0.0182	-0.0073	-0.0462	0.0165	0.9585
18.1934	40.0158	836.116	33.2018	-283.5488	-14.7997	697.5281	0.068328	1.0484	0.19709	0.36275	-0.13164	0.90616	-0.0592	0.0182	-0.0073	-0.0462	0.0165	0.9585
18.2089	42.2099	833.3957	33.9416	-282.626	-14.6938	690.8029	0.045866	1.1761	0.16945	0.44295	-0.10296	1.1502	-0.0592	0.0182	-0.0073	-0.0462	0.0165	0.9585
18.2243	44.8422	832.0914	34.6874	-282.2673	-14.4358	685.1278	0.017211	1.2138	0.13946	0.48003	-0.067281	1.28	-0.0592	0.0182	-0.0073	-0.0462	0.0165	0.9585
18.2397	48.0645	832.2268	35.4362	-282.47	-13.9696	680.4792	-0.0081977	1.0274	0.1069	0.41374	-0.031052	1.153	-0.0592	0.0182	-0.0073	-0.0462	0.0165	0.9585
18.2551	51.9997	833.5647	36.2789	-283.1318	-13.3249	676.6361	-0.014911	0.43782	0.078499	0.16868	-0.010803	0.57341	-0.0592	0.0182	-0.0073	-0.0462	0.0165	0.9585
18.2706	56.7089	835.7134	37.3175	-284.0918	-12.5652	673.2865	0.013926	-0.74968	0.052819	-0.33587	-0.016904	-0.65554	-0.0592	0.0182	-0.0073	-0.0462	0.0165	0.9585
18.286	62.1901	838.2242	38.5993	-285.1751	-11.7309	670.0807	0.10364	-2.6905	0.018256	-1.1602	-0.047255	-2.6921	-0.0592	0.0182	-0.0073	-0.0462	0.0165	0.9585
18.3014	68.3687	840.6941	40.1248	-286.2257	-10.8448	666.709	0.28063	-5.3884	-0.022543	-2.3016	-0.11148	-5.5484	-0.0592	0.0182	-0.0073	-0.0462	0.0165	0.9585
18.3169	75.1038	842.8277	41.8336	-287.1326	-9.8954	662.9602	0.55215	-8.5121	-0.070116	-3.6209	-0.20944	-8.8809	-0.0592	0.0182	-0.0073	-0.0462	0.0165	0.9585
18.3323	82.2385	844.4347	43.6544	-287.8277	-8.8623	658.7068	0.91043	-11.1718	-0.1107	-4.7424	-0.34778	-11.764	-0.0592	0.0182	-0.0073	-0.0462	0.0165	0.9585
18.3477	89.6367	845.4011	45.5121	-288.273	-7.7115	653.8753	1.297	-11.654	-0.12698	-4.9427	-0.50898	-12.3825	-0.0592	0.0182	-0.0073	-0.0462	0.0165	0.9585
18.3631	97.213	845.582	47.3159	-288.4237	-6.3784	648.3818	1.5712	-7.2163	-0.057261	-3.0658	-0.67549	-7.8074	-0.0592	0.0182	-0.0073	-0.0462	0.0165	0.9585
18.3786	104.9313	844.6671	48.9482	-288.1812	-4.7687	642.0584	1.4961	5.8991	0.1854	2.4744	-0.81173	5.9665	-0.0592	0.0182	-0.0073	-0.0462	0.0165	0.9585
18.394	112.7319	842.0245	50.2191	-287.3417	-2.7499	634.5178	0.69368	32.0341	0.7028	13.5091	-0.84279	33.605	-0.0592	0.0182	-0.0073	-0.0462	0.0165	0.9585
18.4094	120.4177	836.5826	50.862	-285.5589	-0.1858	625.0776	-1.3504	74.9148	1.5814	31.5996	-0.63236	79.1247	-0.0592	0.0182	-0.0073	-0.0462	0.0165	0.9585
18.4249	127.5612	826.6625	50.499	-282.2882	3.0493	612.6723	-5.1889	135.2722	2.837	57.0411	0.031418	143.3868	-0.0592	0.0182	-0.0073	-0.0462	0.0165	0.9585
18.4403	133.4855	809.9051	48.6431	-276.7614	7.0487	595.7648	-11.3188	207.3678	4.3752	87.4074	1.4047	220.4175	-0.0592	0.0182	-0.0073	-0.0462	0.0165	0.9585
18.4557	137.3139	783.4994	44.8354	-268.0415	11.7804	572.4926	-19.658	277.5536	5.749	116.879	3.8162	295.8425	-0.0592	0.0182	-0.0073	-0.0462	0.0165	0.9585
18.4711	138.1649	744.8111	38.8937	-255.2238	16.9925	541.1029	-28.8345	330.319	3.9778	138.6673	9.5904	353.2453	-0.0592	0.0182	-0.0073	-0.0462	0.0165	0.9585
18.4866	135.4414	692.385	31.2451	-237.7445	22.1182	500.6515	-37.3766	362.9434	-2.0779	151.4155	19.272	389.541	-0.0592	0.0182	-0.0073	-0.0462	0.0165	0.9585
18.502	128.9517	626.5919	23.049	-215.6095	26.2665	451.4548	-44.9435	385.2059	-11.123	159.2668	31.5085	414.8264	-0.0592	0.0182	-0.0073	-0.0462	0.0165	0.9585
18.5174	118.7706	549.6594	15.6076	-189.4767	28.5719	395.0916	-51.7659	408.0191	-20.7823	167.0475	44.0845	440.3445	-0.0592	0.0182	-0.0073	-0.0462	0.0165	0.9585
18.5329	105.2143	465.4452	9.6443	-160.6397	28.6285	334.2275	-57.6892	439.0543	-29.4252	178.2402	55.3153	473.7839	-0.0592	0.0182	-0.0073	-0.0462	0.0165	0.9585
18.5483	88.9041	379.0694	5.1854	-130.9006	26.5977	272.3949	-61.9052	482.7692	-36.1354	194.8917	63.947	519.3155	-0.0592	0.0182	-0.0073	-0.0462	0.0165	0.9585
18.5637	70.9534	296.0062	1.9737	-102.222	22.9992	213.3068	-63.6814	540.1291	-41.376	217.4695	70.0801	577.5439	-0.0592	0.0182	-0.0073	-0.0462	0.0165	0.9585
18.5791	52.9037	221.0072	-0.266	-76.3119	18.5488	160.0985	-62.8617	608.5188	-45.9872	244.8965	74.4207	645.5366	-0.0592	0.0182	-0.0073	-0.0462	0.0165	0.9585
18.5946	36.3179	157.2571	-1.6856	-54.3016	13.9188	114.8283	-60.0107	683.0067	-50.0289	275.136	77.2272	718.169	-0.0592	0.0182	-0.0073	-0.0462	0.0165	0.9585
18.61	22.352	106.1689	-2.3494	-36.6793	9.588	78.3897	-56.0073	757.7762	-53.5307	305.7576	78.8616	789.6229	-0.0592	0.0182	-0.0073	-0.0462	0.0165	0.9585
18.6254	11.6037	67.4933	-2.4049	-23.351	5.9014	50.6281	-51.4762	826.7741	-56.4613	334.2058	79.5393	853.9672	-0.0592	0.0182	-0.0073	-0.0462	0.0165	0.9585
18.6409	4.1354	39.7076	-2.036	-13.7813	3.0329	30.5574	-46.6908	884.1062	-58.9773	357.9704	79.5228	905.5382	-0.0592	0.0182	-0.0073	-0.0462	0.0165	0.9585
18.6563	-0.32052	20.8082	-1.4475	-7.2716	1.0452	16.8137	-41.6935	924.8415	-61.1235	374.9441	78.8999	939.7301	-0.0592	0.0182	-0.0073	-0.0462	0.0165	0.9585
18.6717	-2.2299	8.8962	-0.84999	-3.163	-0.066896	8.0736	-36.3609	945.8424	-62.5155	383.7938	77.3044	953.7705	-0.0592	0.0182	-0.0073	-0.0462	0.0165	0.9585
18.6871	-2.4165	2.3632	-0.40492	-0.90178	-0.4629	3.2239	-30.4071	946.2531	-63.0676	384.1203	74.5832	947.2052	-0.0592	0.0182	-0.0073	-0.0462	0.0165	0.9585
18.7026	-1.7668	-0.34522	-0.13769	0.043053	-0.43086	1.1777	-23.4121	927.878	-62.9823	376.603	70.7861	922.1821	-0.0592	0.0182	-0.0073	-0.0462	0.0165	0.9585
18.718	-0.86026	-0.70487	0.0050321	0.17531	-0.21822	0.89612	-15.0048	895.4073	-62.5876	363.1173	66.0982	883.6109	-0.0592	0.0182	-0.0073	-0.0462	0.0165	0.9585
18.7334	-0.025054	0.13005	0.059291	-0.10846	0.036438	1.5423	-5.2238	856.0682	-62.1999	346.6125	60.8705	838.8144	-0.0592	0.0182	-0.0073	-0.0462	0.0165	0.9585
18.7489	0.60902	1.3716	0.056108	-0.53825	0.26468	2.5107	5.1688	817.9213	-61.937	330.4209	55.5689	795.8487	-0.0592	0.0182	-0.0073	-0.0462	0.0165	0.9585
18.7643	1.0351	2.5236	0.045429	-0.94382	0.42026	3.403	14.7672	787.3729	-61.9037	317.2292	50.9148	761.046	-0.0592	0.0182	-0.0073	-0.0462	0.0165	0.9585
18.7797	1.2905	3.3111	0.045549	-1.2223	0.50042	3.9889	21.9955	767.6778	-61.9958	308.4429	47.499	737.5519	-0.0592	0.0182	-0.0073	-0.0462	0.0165	0.9585
18.7951	1.4336	3.5597	0.097927	-1.3028	0.48326	4.0842	25.9499	759.0429	-62.0566	304.2132	45.5635	725.4275	-0.0592	0.0182	-0.0073	-0.0462	0.0165	0.9585
18.8106	1.5212	3.1196	0.22588	-1.1248	0.35462	3.4825	26.9863	759.8424	-62.0783	303.9146	44.9449	722.8261	-0.0592	0.0182	-0.0073	-0.0462	0.0165	0.9585
18.826	1.5661	1.8545	0.43976	-0.63373	0.095874	1.9768	26.407	767.8685	-61.9964	306.6478	45.0046	727.2603	-0.0592	0.0182	-0.0073	-0.0462	0.0165	0.9585
18.8414	1.5561	-0.34589	0.74825	0.20944	-0.31143	-0.60751	25.7125	780.7458	-61.8168	311.4101	45.0793	736.1451	-0.0592	0.0182	-0.0073	-0.0462	0.0165	0.9585
18.8569	1.4483	-3.4204	1.0994	1.3785	-0.81925	-4.2427	26.0354	796.0146	-61.5936	317.1378	44.7114	746.9728	-0.0592	0.0182	-0.0073	-0.0462	0.0165	0.9585
18.8723	1.1605	-6.9529	1.3914	2.7121	-1.321	-8.4632	27.9758	811.3117	-61.3971	322.8114	43.6928	757.4639	-0.0592	0.0182	-0.0073	-0.0462	0.0165	0.9585
18.8877	0.60976	-9.9121	1.4088	3.8065	-1.581	-12.0653	31.624	824.8384	-61.2957	327.6679	42.0509	765.9699	-0.0592	0.0182	-0.0073	-0.0462	0.0165	0.9585
18.9031	-0.27997	-10.3415	0.80698	3.9033	-1.1993	-12.7594	36.5568	835.5792	-61.1667	331.3054	39.8663	771.6546	-0.0592	0.0182	-0.0073	-0.0462	0.0165	0.9585
18.9186	-1.5498	-5.1205	-0.87114	1.8084	0.38197	-6.8688	41.9069	843.027	-60.7738	333.5604	37.3049	774.2279	-0.0592	0.0182	-0.0073	-0.0462	0.0165	0.9585
18.934	-3.1019	10.0139	-4.1661	-4.0976	3.8733	10.6472	46.5296	846.6201	-59.8688	334.2604	34.6337	773.4175	-0.0592	0.0182	-0.0073	-0.0462	0.0165	0.9585
18.9494	-4.5976	39.9294	-9.5038	-15.6488	9.9525	45.587	49.3447	845.2385	-58.2428	333.006	32.1182	768.4674	-0.0592	0.0182	-0.0073	-0.0462	0.0165	0.9585
18.9649	-5.3337	88.7199	-16.9147	-34.3509	18.9588	102.9143	49.7072	837.1396	-55.8478	329.1401	29.9686	758.0281	-0.0592	0.0182	-0.0073	-0.0462	0.0165	0.9585
18.9803	-4.3236	157.2001	-25.5366	-60.4187	30.2402	183.7871	47.598	820.2487	-52.7053	321.8702	28.1731	740.3436	-0.0592	0.0182	-0.0073	-0.0462	0.0165	0.9585
18.9957	-1.9128	240.2973	-33.0529	-91.7688	40.8632	282.4481	43.6017	792.5236	-48.8999	310.4244	26.5316	713.5633	-0.0592	0.0182	-0.0073	-0.0462	0.0165	0.9585
19.0111	-1.9789	326.042	-35.4598	-123.6964	44.5728	385.1104	38.5985	752.4275	-44.4834	294.2422	24.7241	676.2301	-0.0592	0.0182	-0.0073	-0.0462	0.0165	0.9585
19.0266	-7.5814	402.2913	-29.9423	-151.5524	36.802	477.953	33.3776	699.3733	-39.4223	273.1348	22.4224	627.7026	-0.0592	0.0182	-0.0073	-0.0462	0.0165	0.9585
19.042	-18.0508	465.3199	-17.9941	-174.0346	19.4256	556.7097	28.3759	634.1058	-33.7096	247.4043	19.4765	568.5843	-0.0592	0.0182	-0.0073	-0.0462	0.0165	0.9585
